<mxfile host="app.diagrams.net" modified="2023-10-08T23:05:58.428Z" agent="Mozilla/5.0 (Windows NT 10.0; Win64; x64; rv:109.0) Gecko/20100101 Firefox/119.0" etag="1O4ACsRRR7y4X42ulzyE" version="22.0.4" type="github">
  <diagram id="6a731a19-8d31-9384-78a2-239565b7b9f0" name="Page-1">
    <mxGraphModel dx="1703" dy="993" grid="1" gridSize="10" guides="1" tooltips="1" connect="1" arrows="1" fold="1" page="1" pageScale="1" pageWidth="1169" pageHeight="827" background="none" math="0" shadow="0">
      <root>
        <mxCell id="0" />
        <mxCell id="1" parent="0" />
        <mxCell id="6PmYhrHesReOMGpqTjvc-1545" style="edgeStyle=orthogonalEdgeStyle;rounded=0;orthogonalLoop=1;jettySize=auto;html=1;exitX=0.5;exitY=1;exitDx=0;exitDy=0;entryX=0.5;entryY=0;entryDx=0;entryDy=0;fillColor=#f5f5f5;strokeColor=#666666;" edge="1" parent="1" source="6PmYhrHesReOMGpqTjvc-1542" target="6PmYhrHesReOMGpqTjvc-1544">
          <mxGeometry relative="1" as="geometry" />
        </mxCell>
        <mxCell id="6PmYhrHesReOMGpqTjvc-1542" value="&lt;p style=&quot;line-height: 160%;&quot;&gt;http:/localhost:10023/api&lt;/p&gt;" style="rounded=1;whiteSpace=wrap;html=1;fillColor=#f5f5f5;strokeColor=#666666;strokeWidth=2;glass=0;shadow=1;fontColor=#333333;" vertex="1" parent="1">
          <mxGeometry x="520" y="90" width="160" height="60" as="geometry" />
        </mxCell>
        <mxCell id="6PmYhrHesReOMGpqTjvc-1562" style="edgeStyle=orthogonalEdgeStyle;rounded=0;orthogonalLoop=1;jettySize=auto;html=1;exitX=0;exitY=0.5;exitDx=0;exitDy=0;entryX=1;entryY=0.5;entryDx=0;entryDy=0;fillColor=#f8cecc;strokeColor=#b85450;" edge="1" parent="1" source="6PmYhrHesReOMGpqTjvc-1544" target="6PmYhrHesReOMGpqTjvc-1563">
          <mxGeometry relative="1" as="geometry">
            <mxPoint x="380" y="270" as="targetPoint" />
          </mxGeometry>
        </mxCell>
        <mxCell id="6PmYhrHesReOMGpqTjvc-1565" style="edgeStyle=orthogonalEdgeStyle;rounded=0;orthogonalLoop=1;jettySize=auto;html=1;entryX=1;entryY=0.5;entryDx=0;entryDy=0;fillColor=#f8cecc;strokeColor=#b85450;" edge="1" parent="1" source="6PmYhrHesReOMGpqTjvc-1544" target="6PmYhrHesReOMGpqTjvc-1564">
          <mxGeometry relative="1" as="geometry" />
        </mxCell>
        <mxCell id="6PmYhrHesReOMGpqTjvc-1544" value="&lt;font color=&quot;#00ff80&quot;&gt;/auth&lt;/font&gt;" style="rounded=1;whiteSpace=wrap;html=1;fillColor=#d5e8d4;strokeColor=#00FF00;strokeWidth=2;shadow=1;sketch=1;curveFitting=1;jiggle=2;" vertex="1" parent="1">
          <mxGeometry x="540" y="240" width="120" height="60" as="geometry" />
        </mxCell>
        <mxCell id="6PmYhrHesReOMGpqTjvc-1546" style="edgeStyle=orthogonalEdgeStyle;rounded=0;orthogonalLoop=1;jettySize=auto;html=1;exitX=0.5;exitY=1;exitDx=0;exitDy=0;fillColor=#d5e8d4;strokeColor=#82b366;entryX=0.5;entryY=0;entryDx=0;entryDy=0;" edge="1" parent="1" source="6PmYhrHesReOMGpqTjvc-1544" target="6PmYhrHesReOMGpqTjvc-1547">
          <mxGeometry relative="1" as="geometry">
            <mxPoint x="599.73" y="320" as="sourcePoint" />
            <mxPoint x="600" y="380" as="targetPoint" />
          </mxGeometry>
        </mxCell>
        <mxCell id="6PmYhrHesReOMGpqTjvc-1550" style="edgeStyle=orthogonalEdgeStyle;rounded=0;orthogonalLoop=1;jettySize=auto;html=1;entryX=0.5;entryY=0;entryDx=0;entryDy=0;fillColor=#e1d5e7;strokeColor=#9673a6;" edge="1" parent="1" source="6PmYhrHesReOMGpqTjvc-1547" target="6PmYhrHesReOMGpqTjvc-1548">
          <mxGeometry relative="1" as="geometry" />
        </mxCell>
        <mxCell id="6PmYhrHesReOMGpqTjvc-1551" style="edgeStyle=orthogonalEdgeStyle;rounded=0;orthogonalLoop=1;jettySize=auto;html=1;entryX=0.5;entryY=0;entryDx=0;entryDy=0;fillColor=#e1d5e7;strokeColor=#9673a6;" edge="1" parent="1" source="6PmYhrHesReOMGpqTjvc-1547" target="6PmYhrHesReOMGpqTjvc-1549">
          <mxGeometry relative="1" as="geometry" />
        </mxCell>
        <mxCell id="6PmYhrHesReOMGpqTjvc-1547" value="/google" style="rounded=1;whiteSpace=wrap;html=1;fillColor=#e1d5e7;strokeColor=#9673a6;sketch=1;curveFitting=1;jiggle=2;" vertex="1" parent="1">
          <mxGeometry x="540" y="360" width="120" height="60" as="geometry" />
        </mxCell>
        <mxCell id="6PmYhrHesReOMGpqTjvc-1554" style="edgeStyle=orthogonalEdgeStyle;rounded=0;orthogonalLoop=1;jettySize=auto;html=1;entryX=0;entryY=0;entryDx=0;entryDy=0;fillColor=#dae8fc;strokeColor=#6c8ebf;" edge="1" parent="1" source="6PmYhrHesReOMGpqTjvc-1548" target="6PmYhrHesReOMGpqTjvc-1552">
          <mxGeometry relative="1" as="geometry">
            <mxPoint x="500" y="570" as="targetPoint" />
          </mxGeometry>
        </mxCell>
        <mxCell id="6PmYhrHesReOMGpqTjvc-1548" value="/login" style="rounded=1;whiteSpace=wrap;html=1;sketch=1;curveFitting=1;jiggle=2;fillColor=#e1d5e7;strokeColor=#9673a6;" vertex="1" parent="1">
          <mxGeometry x="390" y="414" width="120" height="40" as="geometry" />
        </mxCell>
        <mxCell id="6PmYhrHesReOMGpqTjvc-1557" style="edgeStyle=orthogonalEdgeStyle;rounded=0;orthogonalLoop=1;jettySize=auto;html=1;exitX=0.5;exitY=1;exitDx=0;exitDy=0;entryX=1;entryY=0;entryDx=0;entryDy=0;fillColor=#dae8fc;strokeColor=#6c8ebf;" edge="1" parent="1" source="6PmYhrHesReOMGpqTjvc-1549" target="6PmYhrHesReOMGpqTjvc-1556">
          <mxGeometry relative="1" as="geometry" />
        </mxCell>
        <mxCell id="6PmYhrHesReOMGpqTjvc-1549" value="/redirect" style="rounded=1;whiteSpace=wrap;html=1;sketch=1;curveFitting=1;jiggle=2;fillColor=#e1d5e7;strokeColor=#9673a6;" vertex="1" parent="1">
          <mxGeometry x="680" y="414" width="120" height="40" as="geometry" />
        </mxCell>
        <mxCell id="6PmYhrHesReOMGpqTjvc-1560" style="edgeStyle=orthogonalEdgeStyle;rounded=0;orthogonalLoop=1;jettySize=auto;html=1;exitX=1;exitY=0.5;exitDx=0;exitDy=0;entryX=0;entryY=0.5;entryDx=0;entryDy=0;fillColor=#dae8fc;strokeColor=#6c8ebf;" edge="1" parent="1" source="6PmYhrHesReOMGpqTjvc-1552" target="6PmYhrHesReOMGpqTjvc-1556">
          <mxGeometry relative="1" as="geometry" />
        </mxCell>
        <mxCell id="6PmYhrHesReOMGpqTjvc-1552" value="Перекидывает на авторизацию через почту, выбираешь акк" style="rounded=1;whiteSpace=wrap;html=1;sketch=1;curveFitting=1;jiggle=2;fillColor=#dae8fc;strokeColor=#6c8ebf;" vertex="1" parent="1">
          <mxGeometry x="450" y="540" width="120" height="80" as="geometry" />
        </mxCell>
        <mxCell id="6PmYhrHesReOMGpqTjvc-1553" style="edgeStyle=orthogonalEdgeStyle;rounded=0;orthogonalLoop=1;jettySize=auto;html=1;exitX=0.5;exitY=1;exitDx=0;exitDy=0;" edge="1" parent="1" source="6PmYhrHesReOMGpqTjvc-1549" target="6PmYhrHesReOMGpqTjvc-1549">
          <mxGeometry relative="1" as="geometry" />
        </mxCell>
        <mxCell id="6PmYhrHesReOMGpqTjvc-1587" style="edgeStyle=orthogonalEdgeStyle;rounded=0;orthogonalLoop=1;jettySize=auto;html=1;exitX=0;exitY=0;exitDx=0;exitDy=0;entryX=1;entryY=1;entryDx=0;entryDy=0;fillColor=#008a00;strokeColor=#005700;" edge="1" parent="1" source="6PmYhrHesReOMGpqTjvc-1556" target="6PmYhrHesReOMGpqTjvc-1571">
          <mxGeometry relative="1" as="geometry">
            <mxPoint x="609.98" y="540" as="sourcePoint" />
            <mxPoint x="329.98" y="480" as="targetPoint" />
            <Array as="points">
              <mxPoint x="620" y="480" />
            </Array>
          </mxGeometry>
        </mxCell>
        <mxCell id="6PmYhrHesReOMGpqTjvc-1588" value="Если новый юзер. Password = null" style="edgeLabel;html=1;align=center;verticalAlign=middle;resizable=0;points=[];labelBackgroundColor=#00CC00;" vertex="1" connectable="0" parent="6PmYhrHesReOMGpqTjvc-1587">
          <mxGeometry relative="1" as="geometry">
            <mxPoint as="offset" />
          </mxGeometry>
        </mxCell>
        <mxCell id="6PmYhrHesReOMGpqTjvc-1556" value="Отдает токен, с user данными и дальше закидывает на бд юзера, нового, если есть" style="rounded=1;whiteSpace=wrap;html=1;sketch=1;curveFitting=1;jiggle=2;fillColor=#dae8fc;strokeColor=#6c8ebf;" vertex="1" parent="1">
          <mxGeometry x="620" y="540" width="120" height="80" as="geometry" />
        </mxCell>
        <mxCell id="6PmYhrHesReOMGpqTjvc-1570" style="edgeStyle=orthogonalEdgeStyle;rounded=0;orthogonalLoop=1;jettySize=auto;html=1;exitX=0;exitY=0.5;exitDx=0;exitDy=0;fillColor=#dae8fc;strokeColor=#6c8ebf;" edge="1" parent="1" source="6PmYhrHesReOMGpqTjvc-1563" target="6PmYhrHesReOMGpqTjvc-1569">
          <mxGeometry relative="1" as="geometry" />
        </mxCell>
        <mxCell id="6PmYhrHesReOMGpqTjvc-1563" value="/login" style="rounded=1;whiteSpace=wrap;html=1;sketch=1;curveFitting=1;jiggle=2;fillColor=#f8cecc;strokeColor=#b85450;" vertex="1" parent="1">
          <mxGeometry x="320" y="220" width="90" height="30" as="geometry" />
        </mxCell>
        <mxCell id="6PmYhrHesReOMGpqTjvc-1568" style="edgeStyle=orthogonalEdgeStyle;rounded=0;orthogonalLoop=1;jettySize=auto;html=1;fillColor=#dae8fc;strokeColor=#6c8ebf;" edge="1" parent="1" source="6PmYhrHesReOMGpqTjvc-1564" target="6PmYhrHesReOMGpqTjvc-1566">
          <mxGeometry relative="1" as="geometry" />
        </mxCell>
        <mxCell id="6PmYhrHesReOMGpqTjvc-1572" style="edgeStyle=orthogonalEdgeStyle;rounded=0;orthogonalLoop=1;jettySize=auto;html=1;exitX=0.5;exitY=1;exitDx=0;exitDy=0;fillColor=#008a00;strokeColor=#005700;" edge="1" parent="1" source="6PmYhrHesReOMGpqTjvc-1564" target="6PmYhrHesReOMGpqTjvc-1571">
          <mxGeometry relative="1" as="geometry" />
        </mxCell>
        <mxCell id="6PmYhrHesReOMGpqTjvc-1564" value="/register" style="rounded=1;whiteSpace=wrap;html=1;sketch=1;curveFitting=1;jiggle=2;fillColor=#f8cecc;strokeColor=#b85450;" vertex="1" parent="1">
          <mxGeometry x="320" y="290" width="90" height="40" as="geometry" />
        </mxCell>
        <mxCell id="6PmYhrHesReOMGpqTjvc-1566" value="Сохраняет в бд юзера, с данным по сущности" style="rounded=1;whiteSpace=wrap;html=1;fillColor=#dae8fc;strokeColor=#6c8ebf;sketch=1;curveFitting=1;jiggle=2;" vertex="1" parent="1">
          <mxGeometry x="110" y="330" width="120" height="60" as="geometry" />
        </mxCell>
        <mxCell id="6PmYhrHesReOMGpqTjvc-1569" value="Проверяет по бд, есть ли такой кент(смотрит на емаил, существует ли такой ваще, чтоб дать ему доступ зайти)" style="rounded=1;whiteSpace=wrap;html=1;fillColor=#dae8fc;strokeColor=#6c8ebf;sketch=1;curveFitting=1;jiggle=2;" vertex="1" parent="1">
          <mxGeometry x="110" y="140" width="120" height="110" as="geometry" />
        </mxCell>
        <mxCell id="6PmYhrHesReOMGpqTjvc-1578" style="edgeStyle=orthogonalEdgeStyle;rounded=0;orthogonalLoop=1;jettySize=auto;html=1;exitX=0.75;exitY=1;exitDx=0;exitDy=0;entryX=0.5;entryY=0;entryDx=0;entryDy=0;fillColor=#008a00;strokeColor=#005700;" edge="1" parent="1" source="6PmYhrHesReOMGpqTjvc-1571" target="6PmYhrHesReOMGpqTjvc-1575">
          <mxGeometry relative="1" as="geometry" />
        </mxCell>
        <mxCell id="6PmYhrHesReOMGpqTjvc-1579" style="edgeStyle=orthogonalEdgeStyle;rounded=0;orthogonalLoop=1;jettySize=auto;html=1;exitX=0.5;exitY=1;exitDx=0;exitDy=0;fillColor=#008a00;strokeColor=#005700;" edge="1" parent="1" source="6PmYhrHesReOMGpqTjvc-1571" target="6PmYhrHesReOMGpqTjvc-1577">
          <mxGeometry relative="1" as="geometry" />
        </mxCell>
        <mxCell id="6PmYhrHesReOMGpqTjvc-1580" style="edgeStyle=orthogonalEdgeStyle;rounded=0;orthogonalLoop=1;jettySize=auto;html=1;exitX=0.25;exitY=1;exitDx=0;exitDy=0;entryX=1;entryY=0;entryDx=0;entryDy=0;fillColor=#008a00;strokeColor=#005700;" edge="1" parent="1" source="6PmYhrHesReOMGpqTjvc-1571" target="6PmYhrHesReOMGpqTjvc-1573">
          <mxGeometry relative="1" as="geometry" />
        </mxCell>
        <mxCell id="6PmYhrHesReOMGpqTjvc-1581" style="edgeStyle=orthogonalEdgeStyle;rounded=0;orthogonalLoop=1;jettySize=auto;html=1;exitX=0;exitY=1;exitDx=0;exitDy=0;fillColor=#008a00;strokeColor=#005700;entryX=1;entryY=0;entryDx=0;entryDy=0;" edge="1" parent="1" source="6PmYhrHesReOMGpqTjvc-1571" target="6PmYhrHesReOMGpqTjvc-1576">
          <mxGeometry relative="1" as="geometry" />
        </mxCell>
        <mxCell id="6PmYhrHesReOMGpqTjvc-1582" style="edgeStyle=orthogonalEdgeStyle;rounded=0;orthogonalLoop=1;jettySize=auto;html=1;exitX=0;exitY=0.5;exitDx=0;exitDy=0;entryX=1;entryY=0.5;entryDx=0;entryDy=0;fillColor=#008a00;strokeColor=#005700;" edge="1" parent="1" source="6PmYhrHesReOMGpqTjvc-1571" target="6PmYhrHesReOMGpqTjvc-1574">
          <mxGeometry relative="1" as="geometry" />
        </mxCell>
        <mxCell id="6PmYhrHesReOMGpqTjvc-1585" style="edgeStyle=orthogonalEdgeStyle;rounded=0;orthogonalLoop=1;jettySize=auto;html=1;exitX=1;exitY=1;exitDx=0;exitDy=0;entryX=0;entryY=0;entryDx=0;entryDy=0;fillColor=#008a00;strokeColor=#005700;" edge="1" parent="1" source="6PmYhrHesReOMGpqTjvc-1571" target="6PmYhrHesReOMGpqTjvc-1584">
          <mxGeometry relative="1" as="geometry" />
        </mxCell>
        <mxCell id="6PmYhrHesReOMGpqTjvc-1571" value="&lt;font color=&quot;#000099&quot;&gt;Entity&lt;/font&gt;" style="rounded=1;whiteSpace=wrap;html=1;sketch=1;curveFitting=1;jiggle=2;fillColor=#008a00;strokeColor=#005700;fontColor=#ffffff;" vertex="1" parent="1">
          <mxGeometry x="240" y="450" width="100" height="30" as="geometry" />
        </mxCell>
        <mxCell id="6PmYhrHesReOMGpqTjvc-1573" value="&lt;font color=&quot;#000066&quot;&gt;username&lt;/font&gt;" style="rounded=1;whiteSpace=wrap;html=1;sketch=1;curveFitting=1;jiggle=2;fillColor=#008a00;fontColor=#ffffff;strokeColor=#005700;" vertex="1" parent="1">
          <mxGeometry x="150" y="570" width="60" height="30" as="geometry" />
        </mxCell>
        <mxCell id="6PmYhrHesReOMGpqTjvc-1574" value="&lt;font color=&quot;#000066&quot;&gt;Email&lt;/font&gt;" style="rounded=1;whiteSpace=wrap;html=1;sketch=1;curveFitting=1;jiggle=2;fillColor=#008a00;fontColor=#ffffff;strokeColor=#005700;" vertex="1" parent="1">
          <mxGeometry x="50" y="470" width="60" height="30" as="geometry" />
        </mxCell>
        <mxCell id="6PmYhrHesReOMGpqTjvc-1575" value="&lt;font color=&quot;#000066&quot;&gt;lastName&lt;/font&gt;" style="rounded=1;whiteSpace=wrap;html=1;sketch=1;curveFitting=1;jiggle=2;fillColor=#008a00;fontColor=#ffffff;strokeColor=#005700;" vertex="1" parent="1">
          <mxGeometry x="290" y="580" width="60" height="30" as="geometry" />
        </mxCell>
        <mxCell id="6PmYhrHesReOMGpqTjvc-1576" value="&lt;font color=&quot;#000066&quot;&gt;Password&lt;/font&gt;" style="rounded=1;whiteSpace=wrap;html=1;sketch=1;curveFitting=1;jiggle=2;fillColor=#008a00;fontColor=#ffffff;strokeColor=#005700;" vertex="1" parent="1">
          <mxGeometry x="80" y="530" width="60" height="30" as="geometry" />
        </mxCell>
        <mxCell id="6PmYhrHesReOMGpqTjvc-1577" value="&lt;font color=&quot;#000066&quot;&gt;firstName&lt;/font&gt;" style="rounded=1;whiteSpace=wrap;html=1;sketch=1;curveFitting=1;jiggle=2;fillColor=#008a00;fontColor=#ffffff;strokeColor=#005700;" vertex="1" parent="1">
          <mxGeometry x="220" y="600" width="60" height="30" as="geometry" />
        </mxCell>
        <mxCell id="6PmYhrHesReOMGpqTjvc-1584" value="&lt;font color=&quot;#000066&quot;&gt;picture&lt;/font&gt;" style="rounded=1;whiteSpace=wrap;html=1;sketch=1;curveFitting=1;jiggle=2;fillColor=#008a00;fontColor=#ffffff;strokeColor=#005700;" vertex="1" parent="1">
          <mxGeometry x="350" y="530" width="60" height="30" as="geometry" />
        </mxCell>
      </root>
    </mxGraphModel>
  </diagram>
</mxfile>
